{"title":"Inception CAM XViD - IMAGiNE(NEW SOURCE-ELEKTRI4KA)","uid":5718308,"size":1491436566,"categoryP":"video","categoryS":"movies","magnet":"?xt=urn:btih:55bc30ed7c029dd28a26b19bad0d207934e88508&amp;dn=Inception+CAM+XViD+-+IMAGiNE%28NEW+SOURCE-ELEKTRI4KA%29&amp;tr=udp%3A%2F%2Ftracker.openbittorrent.com%3A80&amp;tr=udp%3A%2F%2Fopen.demonii.com%3A1337&amp;tr=udp%3A%2F%2Ftracker.coppersurfer.tk%3A6969&amp;tr=udp%3A%2F%2Fexodus.desync.com%3A6969","seeders":0,"leechers":1,"uploader":"raymondhome","files":7,"time":1280191387,"description":"Love for All and Sharing is the first step to solving all the problems of humanity.\n\nWebsites I want to share.\n\n     &lt;a href=&quot;\nhttp://www.shareintl.org/&quot; rel=&quot;nofollow&quot; target=&quot;_NEW&quot;&gt;\nhttp://www.shareintl.org/&lt;/a&gt;\n\n     &lt;a href=&quot;\nhttp://www.lightmiddleway.com&quot; rel=&quot;nofollow&quot; target=&quot;_NEW&quot;&gt;\nhttp://www.lightmiddleway.com&lt;/a&gt;\n\n\nThank you very much\n\nNo credit for me...credit to EVERYONE for sharing\n\n &lt;a href=&quot;\nhttp://thepiratebay.se/user/raymondhome/&quot; rel=&quot;nofollow&quot; target=&quot;_NEW&quot;&gt;\nhttp://thepiratebay.se/user/raymondhome/&lt;/a&gt;\n\nSTORY\nYour mind is the scene of the crime\n\nIn a world where technology exists to enter the human mind through dream invasion, a highly skilled thief is given a final chance at redemption which involves executing his toughest job till date, Inception.\n\nIMDb RATING: 9.3/10 (46,333 votes) Top 250: #3\n\nRuntime.......:2h 19mn\nLanguage..........:ENGLISH\n\nVideo\nID                               : 0\nFormat                           : MPEG-4 Visual\nFormat profile                   : Advanced Simple@L5\nFormat settings, BVOP            : Yes\nFormat settings, QPel            : No\nFormat settings, GMC             : No warppoints\nFormat settings, Matrix          : Default (MPEG)\nMuxing mode                      : Packed bitstream\nCodec ID                         : XVID\nCodec ID/Hint                    : XviD\nDuration                         : 2h 19mn\nBit rate                         : 1 271 Kbps\nWidth                            : 640 pixels\nHeight                           : 256 pixels\nDisplay aspect ratio             : 2.500\nFrame rate                       : 25.000 fps\nResolution                       : 24 bits\nColorimetry                      : 4:2:0\nScan type                        : Progressive\nBits/(Pixel*Frame)               : 0.310\nStream size                      : 1.24 GiB (90%)\nWriting library                  : XviD 1.2.1 (UTC 2008-12-04)\n\nAudio\nID                               : 1\nFormat                           : MPEG Audio\nFormat version                   : Version 1\nFormat profile                   : Layer 3\nCodec ID                         : 55\nCodec ID/Hint                    : MP3\nDuration                         : 2h 19mn\nBit rate mode                    : Constant\nBit rate                         : 128 Kbps\nChannel(s)                       : 2 channels\nSampling rate                    : 44.1 KHz\nResolution                       : 16 bits\nStream size                      : 128 MiB (9%)\nAlignment                        : Split accross interleaves\nInterleave, duration             : 40 ms (1.00 video frame)\nInterleave, preload duration     : 500 ms\n\nIMAGiNE NOTES\nSources used......video was vobs off ELEKTRI4KA and new audio source of Fresh ....many thanks both :)\n\nRight work done.....firstly took the vobs we had and made a script to crop it, resize, white balance, brightness and contrast. Then dropped that into vdub and used some more filters ... inc rgb eq, smoother, sharpen, hue, intes and a few more.\n\nNow the audio was some pretty good cam audio, but needed to be cut and synced and then filtered some. One done it was a case of muxing together and packing it up.\n\ncredit IMAGiNE &amp; to all the people who made it possible for us to share this...especially EVERYONE involve in the production of the movie...IF YOU LIKE IT...BUY IT :)\n\nBIG BIG BIG GREETZ &amp; THANKS:\nALL members &amp; STAFFS of PIRATEBAY, EXTRATORRENT, KINGDOM, DEMONOID &amp; AHASHARE :)\nKaOsUSC, Motley Crue, InFeCtiouS, BADASS, W1ck3d1nt3ntz, ceo54, DaRkReAlM, ghostman, karakurachow, megaplay, Emery1337x, SaM, geordieboy1979, timamirrockdude, Noir, Shedevil, bone111, JorgeMontana, BlueLady, UniversalAbsurdity, mc68, TheFalcon007, pardeep333, X, DR67, DiNGiE, xclusive666, pro2kon, EMUworld, wrath, oziman, rubak1, BigPerm1828, skynetcentral, IZON, bluepeas, extremezone, Dibya9999, Treezluv2draw, pitic, FASAMOO, W1CK3D1NT3Z, GRIND3R, extremezone, MonsterTV &amp; many more :)\nALL the awesome people who are SHARING (ALL THE UPLOADERS, THE RIPPERS, THE SCENE GROUPS, ETC, THE WHOLE P2P COMMUNITY, even the CRITICIZERS )\n***wish i could list everyone***Thank you very much everyone &amp; i mean EVERYONE :)\n\n*****help what we can with others in need...the world is ONE big family*****\n\nSCREENSHOTS\n &lt;a href=&quot;\nhttp://imagine.takagari.com/inception/vlcsnap-489453.png&quot; rel=&quot;nofollow&quot; target=&quot;_NEW&quot;&gt;\nhttp://imagine.takagari.com/inception/vlcsnap-489453.png&lt;/a&gt;\n &lt;a href=&quot;\nhttp://imagine.takagari.com/inception/vlcsnap-489693.png&quot; rel=&quot;nofollow&quot; target=&quot;_NEW&quot;&gt;\nhttp://imagine.takagari.com/inception/vlcsnap-489693.png&lt;/a&gt;\n &lt;a href=&quot;\nhttp://imagine.takagari.com/inception/vlcsnap-490632.png&quot; rel=&quot;nofollow&quot; target=&quot;_NEW&quot;&gt;\nhttp://imagine.takagari.com/inception/vlcsnap-490632.png&lt;/a&gt;\n &lt;a href=&quot;\nhttp://imagine.takagari.com/inception/vlcsnap-491410.png&quot; rel=&quot;nofollow&quot; target=&quot;_NEW&quot;&gt;\nhttp://imagine.takagari.com/inception/vlcsnap-491410.png&lt;/a&gt;\n &lt;a href=&quot;\nhttp://imagine.takagari.com/inception/vlcsnap-491617.png&quot; rel=&quot;nofollow&quot; target=&quot;_NEW&quot;&gt;\nhttp://imagine.takagari.com/inception/vlcsnap-491617.png&lt;/a&gt;\n\nDON'T THANK ME...HELP SOMEONE IN NEED :)\n\nMAY YOU &amp; YOUR LOVED ONES ALWAYS BE BLESSED WITH LIGHT, LOVE, JOY, PEACE, GOOD HEALTH &amp; ABUNDANCE :)","torrent":{"xt":"urn:btih:55bc30ed7c029dd28a26b19bad0d207934e88508","amp;dn":"Inception+CAM+XViD+-+IMAGiNE%28NEW+SOURCE-ELEKTRI4KA%29","amp;tr":["udp%3A%2F%2Ftracker.openbittorrent.com%3A80","udp%3A%2F%2Fopen.demonii.com%3A1337","udp%3A%2F%2Ftracker.coppersurfer.tk%3A6969","udp%3A%2F%2Fexodus.desync.com%3A6969"],"infoHash":"55bc30ed7c029dd28a26b19bad0d207934e88508","infoHashBuffer":{"type":"Buffer","data":[85,188,48,237,124,2,157,210,138,38,177,155,173,13,32,121,52,232,133,8]},"announce":[],"urlList":[]}}